<svg width="34" height="33" viewBox="0 0 34 33" fill="none" xmlns="http://www.w3.org/2000/svg">
<rect x="0.810547" y="0.569824" width="33.045" height="32.0253" rx="16.0127" fill="white"/>
<path d="M11.53 19.0612L10.7771 21.7852L8.02523 21.8416C7.20281 20.3633 6.73633 18.6719 6.73633 16.8745C6.73633 15.1364 7.17248 13.4974 7.94559 12.0542H7.94618L10.3961 12.4895L11.4694 14.8496C11.2448 15.4843 11.1223 16.1656 11.1223 16.8745C11.1224 17.6439 11.2662 18.3811 11.53 19.0612Z" fill="#FBBB00"/>
<path d="M28.1774 14.916C28.3017 15.5501 28.3664 16.2049 28.3664 16.8741C28.3664 17.6245 28.285 18.3565 28.1299 19.0625C27.6034 21.4652 26.2278 23.5632 24.3221 25.0478L24.3215 25.0473L21.2356 24.8947L20.7989 22.2524C22.0634 21.5337 23.0516 20.409 23.5722 19.0625H17.7891V14.916H23.6566H28.1774Z" fill="#518EF8"/>
<path d="M24.3217 25.047L24.3223 25.0476C22.4689 26.4914 20.1145 27.3552 17.5516 27.3552C13.4329 27.3552 9.85209 25.1242 8.02539 21.841L11.5302 19.0605C12.4435 21.4229 14.7949 23.1045 17.5516 23.1045C18.7365 23.1045 19.8466 22.7941 20.7991 22.2522L24.3217 25.047Z" fill="#28B446"/>
<path d="M24.4544 8.80559L20.9508 11.5855C19.965 10.9883 18.7996 10.6433 17.5512 10.6433C14.7321 10.6433 12.3367 12.4021 11.4691 14.8491L7.9459 12.0537H7.94531C9.74527 8.69042 13.3713 6.39258 17.5512 6.39258C20.1753 6.39258 22.5814 7.29848 24.4544 8.80559Z" fill="#F14336"/>
</svg>
